<?xml version="1.0" encoding="UTF-8"?>
<!DOCTYPE svg PUBLIC "-//W3C//DTD SVG 1.1//EN" "http://www.w3.org/Graphics/SVG/1.1/DTD/svg11.dtd">
<svg xmlns="http://www.w3.org/2000/svg" version="1.1" width="2056px" height="729px" style="shape-rendering:geometricPrecision; text-rendering:geometricPrecision; image-rendering:optimizeQuality; fill-rule:evenodd; clip-rule:evenodd" xmlns:xlink="http://www.w3.org/1999/xlink">
<g><path style="opacity:1" fill="#fefffe" d="M 1875.5,47.5 C 1893.48,46.2423 1907.65,52.909 1918,67.5C 1951.58,145.391 1966.91,226.725 1964,311.5C 1955.3,429.493 1900.13,517.993 1798.5,577C 1735.71,610.821 1669.04,633.487 1598.5,645C 1363.31,681.645 1126.98,691.645 889.5,675C 706.937,662.907 528.27,629.907 353.5,576C 322.288,567.158 290.621,560.491 258.5,556C 242.5,555.667 226.5,555.333 210.5,555C 186.334,550.833 173.334,536.5 171.5,512C 174.954,496.352 179.121,480.852 184,465.5C 191.14,435.94 197.807,406.273 204,376.5C 216.036,321.121 236.369,269.121 265,220.5C 310.938,150.733 374.772,105.899 456.5,86C 515.63,71.7447 575.63,64.9114 636.5,65.5C 717.246,66.8677 797.579,73.3677 877.5,85C 949.604,96.0174 1021.6,107.684 1093.5,120C 1217.42,139.566 1342.09,148.232 1467.5,146C 1559.53,144.539 1649.86,131.539 1738.5,107C 1780.99,94.7483 1820.99,77.0816 1858.5,54C 1864.02,51.11 1869.69,48.9433 1875.5,47.5 Z"/></g>
<g><path style="opacity:1" fill="#e93d7f" d="M 1875.5,68.5 C 1886.48,66.6542 1894.98,70.3209 1901,79.5C 1928.04,145.343 1942.54,213.843 1944.5,285C 1943.92,407.224 1891.25,498.891 1786.5,560C 1725.59,592.636 1660.93,614.303 1592.5,625C 1363.28,660.476 1132.95,670.476 901.5,655C 764.772,646.045 629.772,625.712 496.5,594C 446.701,580.8 397.034,567.134 347.5,553C 317.59,544.818 287.256,538.818 256.5,535C 240.833,534.667 225.167,534.333 209.5,534C 196.477,529.467 190.977,520.3 193,506.5C 205.174,468.47 214.841,429.803 222,390.5C 230.999,349.159 243.999,309.159 261,270.5C 300.552,185.634 365.718,131.134 456.5,107C 515.584,92.3246 575.584,85.4913 636.5,86.5C 712.538,87.4645 788.205,93.2978 863.5,104C 942.621,115.909 1021.62,128.576 1100.5,142C 1218.49,160.076 1337.16,168.41 1456.5,167C 1536.74,165.909 1616.08,156.909 1694.5,140C 1759.22,126.607 1819.55,102.774 1875.5,68.5 Z"/></g>
<g><path style="opacity:1" fill="#fefffe" d="M 1754.5,246.5 C 1771.05,246.549 1780.71,254.715 1783.5,271C 1783.33,277.023 1780.33,280.69 1774.5,282C 1771.52,282.498 1768.52,282.665 1765.5,282.5C 1766.45,273.695 1762.61,268.695 1754,267.5C 1751.83,268.255 1749.66,269.088 1747.5,270C 1744.66,273.003 1742.66,276.503 1741.5,280.5C 1738.48,276.647 1734.98,273.313 1731,270.5C 1732.9,256.77 1740.73,248.77 1754.5,246.5 Z"/></g>
<g><path style="opacity:1" fill="#fefffe" d="M 818.5,259.5 C 830.064,263.215 839.231,270.215 846,280.5C 869.141,267.871 893.641,264.038 919.5,269C 957.067,283.085 976.734,310.252 978.5,350.5C 978.051,371.026 971.218,389.026 958,404.5C 950.1,413.069 941.6,420.903 932.5,428C 924.138,430.497 917.138,428.331 911.5,421.5C 929.699,399.708 936.866,374.708 933,346.5C 924.25,318.55 905.417,306.384 876.5,310C 870.888,312.139 865.554,314.806 860.5,318C 869.583,352.901 868.083,387.401 856,421.5C 854.698,425.274 852.531,428.441 849.5,431C 847.5,431.667 845.5,431.667 843.5,431C 836.21,421.365 826.877,414.699 815.5,411C 808.586,410.189 801.752,410.355 795,411.5C 792.333,409.552 790.833,406.885 790.5,403.5C 805.762,379.547 814.095,353.38 815.5,325C 815.141,308.231 811.474,292.231 804.5,277C 804.862,275.775 805.362,274.609 806,273.5C 810.745,269.26 814.912,264.593 818.5,259.5 Z"/></g>
<g><path style="opacity:1" fill="#fefffe" d="M 1419.5,259.5 C 1430.88,263.459 1440.05,270.459 1447,280.5C 1471.15,267.044 1496.65,263.544 1523.5,270C 1551.56,281.068 1569.4,301.235 1577,330.5C 1583.35,365.782 1572.85,394.948 1545.5,418C 1541.5,421.333 1537.5,424.667 1533.5,428C 1530.3,429.483 1526.96,429.817 1523.5,429C 1519.24,427.066 1515.24,424.732 1511.5,422C 1531.28,399.318 1538.45,373.151 1533,343.5C 1523.47,317.28 1504.97,306.113 1477.5,310C 1471.61,311.612 1466.28,314.279 1461.5,318C 1470.69,353.683 1468.85,388.849 1456,423.5C 1454.17,429.363 1450.34,431.863 1444.5,431C 1437.75,422.471 1429.41,416.138 1419.5,412C 1411.67,410.249 1403.83,410.082 1396,411.5C 1395,410.833 1394,410.167 1393,409.5C 1392.63,407.302 1392.13,405.135 1391.5,403C 1411.38,372.655 1418.88,339.489 1414,303.5C 1412.16,294.323 1409.33,285.49 1405.5,277C 1405.67,276.167 1405.83,275.333 1406,274.5C 1411.08,269.928 1415.58,264.928 1419.5,259.5 Z"/></g>
<g><path style="opacity:1" fill="#fefffe" d="M 466.5,263.5 C 488.2,261.34 507.867,266.507 525.5,279C 539.219,292.378 542.386,307.878 535,325.5C 527.817,334.842 518.317,338.175 506.5,335.5C 507.664,307.772 494.664,296.272 467.5,301C 450.099,308.905 440.765,322.405 439.5,341.5C 441.006,375.839 459.006,393.672 493.5,395C 517.844,398.666 535.177,389.499 545.5,367.5C 549.406,368.363 551.906,370.696 553,374.5C 555.13,397.053 545.63,412.553 524.5,421C 495.021,432.574 465.688,432.24 436.5,420C 396.496,397.812 381.662,364.312 392,319.5C 407.012,287.642 431.845,268.975 466.5,263.5 Z"/></g>
<g><path style="opacity:1" fill="#fefffe" d="M 1073.5,263.5 C 1095.77,261.245 1115.77,266.745 1133.5,280C 1145.57,292.475 1148.74,306.975 1143,323.5C 1135.74,334.537 1125.57,338.537 1112.5,335.5C 1114.52,307.683 1101.85,296.183 1074.5,301C 1051.35,312.475 1042.52,330.975 1048,356.5C 1053.6,379.085 1068.1,391.585 1091.5,394C 1107.29,397.496 1122.29,395.496 1136.5,388C 1143.21,382.55 1148.21,375.883 1151.5,368C 1155.8,368.625 1158.64,371.125 1160,375.5C 1162.18,389.624 1158.02,401.457 1147.5,411C 1129.88,423.871 1110.04,430.038 1088,429.5C 1052.87,429.607 1025.54,415.274 1006,386.5C 984.608,342.431 993.775,306.265 1033.5,278C 1045.89,270.26 1059.23,265.427 1073.5,263.5 Z"/></g>
<g><path style="opacity:1" fill="#fefffe" d="M 1680.5,265.5 C 1698.81,263.061 1715.81,266.561 1731.5,276C 1745.75,288.772 1748.58,303.606 1740,320.5C 1737.56,322.969 1734.73,324.802 1731.5,326C 1726.83,326.667 1722.17,326.667 1717.5,326C 1710.18,324.173 1703.18,321.506 1696.5,318C 1678.73,316.97 1664.89,323.803 1655,338.5C 1649.54,351.455 1653.37,360.288 1666.5,365C 1682.17,366.887 1695.01,361.72 1705,349.5C 1708.68,343.582 1709.85,337.248 1708.5,330.5C 1719.33,335.374 1729.49,334.374 1739,327.5C 1738.86,344.284 1732.36,358.117 1719.5,369C 1696.19,387.077 1669.86,394.411 1640.5,391C 1621.73,384.899 1610.9,372.065 1608,352.5C 1606.97,321.397 1619.14,296.897 1644.5,279C 1655.65,271.912 1667.65,267.412 1680.5,265.5 Z"/></g>
<g><path style="opacity:1" fill="#fefffe" d="M 659.5,266.5 C 683.501,264.534 706.168,269.034 727.5,280C 747.341,293.55 752.174,311.383 742,333.5C 740.127,335.709 737.96,337.542 735.5,339C 725.017,341.85 717.183,338.683 712,329.5C 711.211,325.909 711.378,322.409 712.5,319C 694.068,312.816 675.735,313.149 657.5,320C 641.494,329.632 635.327,343.799 639,362.5C 642.569,377.068 651.736,385.901 666.5,389C 695.032,396.724 716.532,387.89 731,362.5C 733.281,356.71 734.614,350.71 735,344.5C 744.958,338.868 751.625,330.534 755,319.5C 761.072,327.04 764.405,335.707 765,345.5C 769.439,374.239 759.606,396.406 735.5,412C 712.067,426.353 686.734,431.353 659.5,427C 630.189,424.261 605.689,412.094 586,390.5C 570.904,367.492 567.571,342.826 576,316.5C 584.167,299 597,286.167 614.5,278C 629.023,271.787 644.023,267.953 659.5,266.5 Z"/></g>
<g><path style="opacity:1" fill="#fefffe" d="M 1323.5,267.5 C 1329.51,267.334 1335.51,267.501 1341.5,268C 1344.85,268.25 1348.02,269.083 1351,270.5C 1355.9,290.661 1359.9,310.995 1363,331.5C 1367.6,361.293 1359.77,387.126 1339.5,409C 1320.68,424.831 1298.85,432.331 1274,431.5C 1256.02,431.55 1238.52,428.717 1221.5,423C 1193.58,410.686 1180.25,389.186 1181.5,358.5C 1182.7,337.625 1185.53,316.959 1190,296.5C 1191.63,287.905 1192.47,279.238 1192.5,270.5C 1215.99,271.924 1239.32,274.591 1262.5,278.5C 1253.05,298.727 1245.89,319.727 1241,341.5C 1237.48,375.163 1252.48,393.829 1286,397.5C 1318.51,395.341 1331.84,378.341 1326,346.5C 1322.14,322.876 1317.64,299.376 1312.5,276C 1312.99,274.018 1313.99,272.351 1315.5,271C 1318.16,269.522 1320.82,268.355 1323.5,267.5 Z"/></g>
<g><path style="opacity:1" fill="#fefffe" d="M 1633.5,396.5 C 1642.09,397.919 1650.76,398.919 1659.5,399.5C 1656.25,403.244 1656.92,405.744 1661.5,407C 1673.97,407.867 1686.31,406.867 1698.5,404C 1719.05,401.458 1738.39,405.125 1756.5,415C 1768.57,424.182 1773.4,436.348 1771,451.5C 1767.33,468.844 1757.83,482.011 1742.5,491C 1709.61,508.926 1674.94,513.593 1638.5,505C 1624.07,501.542 1611.91,494.375 1602,483.5C 1594.88,473.938 1593.22,463.604 1597,452.5C 1604.42,446.453 1609.42,447.787 1612,456.5C 1621.91,466.812 1634.08,472.312 1648.5,473C 1666.91,474.615 1684.91,472.615 1702.5,467C 1710.69,464.665 1716.86,459.831 1721,452.5C 1722.26,443.073 1718.09,437.573 1708.5,436C 1689.85,434.919 1671.19,433.919 1652.5,433C 1630.31,428.784 1623.98,416.617 1633.5,396.5 Z"/></g>
<g><path style="opacity:1" fill="#fefffe" d="M 1510.5,443.5 C 1512.31,443.491 1513.98,443.991 1515.5,445C 1516.73,446.563 1518.23,447.73 1520,448.5C 1526.24,445.771 1532.74,444.938 1539.5,446C 1542.1,446.883 1544.27,448.383 1546,450.5C 1555.74,444.091 1565.57,443.924 1575.5,450C 1580.76,455.022 1583.43,461.188 1583.5,468.5C 1582.02,476.458 1579.68,484.124 1576.5,491.5C 1570.13,492.271 1567.29,489.604 1568,483.5C 1569.88,479.702 1571.04,475.702 1571.5,471.5C 1569.69,461.267 1563.69,456.934 1553.5,458.5C 1557.41,470.709 1555.07,481.543 1546.5,491C 1543.67,491.969 1541.34,491.303 1539.5,489C 1546.72,478.759 1546.05,469.093 1537.5,460C 1533.38,457.083 1529.21,456.916 1525,459.5C 1526.44,470.123 1525.28,480.456 1521.5,490.5C 1518.46,491.983 1516.13,491.15 1514.5,488C 1511.29,486.024 1507.96,485.358 1504.5,486C 1503.98,485.439 1503.64,484.772 1503.5,484C 1510.46,472.899 1511.79,461.232 1507.5,449C 1508.12,446.915 1509.12,445.082 1510.5,443.5 Z"/></g>
<g><path style="opacity:1" fill="#fefffe" d="M 1410.5,444.5 C 1419.29,442.932 1426.79,445.266 1433,451.5C 1436.49,460.194 1433.66,464.86 1424.5,465.5C 1425.27,457.215 1421.6,454.048 1413.5,456C 1405,462.547 1404.33,469.88 1411.5,478C 1421.19,483.694 1429.35,482.194 1436,473.5C 1438.36,475.651 1439.03,478.317 1438,481.5C 1434.67,487.585 1429.5,490.751 1422.5,491C 1406.8,492.938 1396.63,486.438 1392,471.5C 1390.61,462.101 1393.78,454.601 1401.5,449C 1404.59,447.454 1407.59,445.954 1410.5,444.5 Z"/></g>
<g><path style="opacity:1" fill="#fffefe" d="M 1462.5,445.5 C 1470.83,444.684 1478.83,445.851 1486.5,449C 1488.33,450.167 1489.83,451.667 1491,453.5C 1491.33,456.833 1491.67,460.167 1492,463.5C 1492.51,461.096 1493.67,460.429 1495.5,461.5C 1500.42,476.168 1495.42,485.668 1480.5,490C 1466.87,492.892 1455.37,489.392 1446,479.5C 1438.38,461.741 1443.88,450.408 1462.5,445.5 Z"/></g>
<g><path style="opacity:1" fill="#e93d7f" d="M 1470.5,459.5 C 1473.52,459.335 1476.52,459.502 1479.5,460C 1480.49,464.147 1483.15,466.314 1487.5,466.5C 1485.94,477.517 1479.61,481.684 1468.5,479C 1462.34,475.874 1460.51,471.04 1463,464.5C 1465.17,462.177 1467.67,460.51 1470.5,459.5 Z"/></g>
<g><path style="opacity:1" fill="#fefffe" d="M 1375.5,478.5 C 1381.18,477.169 1384.85,479.169 1386.5,484.5C 1386.39,485.442 1386.06,486.275 1385.5,487C 1381.61,489.11 1377.61,490.943 1373.5,492.5C 1370.46,491.952 1369.12,490.119 1369.5,487C 1369.43,482.608 1371.43,479.774 1375.5,478.5 Z"/></g>
</svg>
